<svg id="Layer_1" enable-background="new 0 0 512 512" height="512" viewBox="0 0 512 512" width="512" xmlns="http://www.w3.org/2000/svg"><g><g id="XMLID_490_"><g id="XMLID_1452_"><g id="XMLID_1453_"><g id="XMLID_1454_"><g id="XMLID_1455_"><g id="XMLID_1456_"><g id="XMLID_1457_"><g id="XMLID_1458_"><g id="XMLID_1459_"><g id="XMLID_1460_"><g id="XMLID_1461_"><g id="XMLID_1462_"><g id="XMLID_1464_"><g id="XMLID_1468_"><circle id="XMLID_1478_" cx="256" cy="256" fill="#21d461" r="256"/></g></g></g></g></g></g></g></g></g></g></g></g></g></g><path d="m512 256c0-27.119-4.231-53.246-12.044-77.775l-103.694-103.694-47.03-.095-40.522-40.249-188.949 421.305 36.233 36.233c30.724 13.051 64.521 20.275 100.006 20.275 141.385 0 256-114.615 256-256z" fill="#1cae4f"/><g><path d="m375.219 461.517h-238.438c-14.949 0-27.068-12.119-27.068-27.068v-342.899c0-14.949 12.119-27.068 27.068-27.068h11.741l107.478 11.518 107.479-11.517h11.741c14.949 0 27.068 12.119 27.068 27.068v342.899c-.001 14.949-12.12 27.067-27.069 27.067z" fill="#005fd2"/><path d="m402.29 91.55v342.9c0 14.95-12.12 27.07-27.07 27.07h-119.22v-385.52l57.16-6.13 50.32-5.39h11.74c14.95 0 27.07 12.12 27.07 27.07z" fill="#00459f"/><path d="m148.521 64.483h214.957v354.998h-214.957z" fill="#fff"/><path d="m256 64.48h107.48v355h-107.48z" fill="#e9edf5"/><path d="m289.654 103.256h-67.308c-12.984 0-23.509-10.525-23.509-23.509v-30.529c0-12.984 10.525-23.509 23.509-23.509h69.252c11.91 0 21.566 9.655 21.566 21.566v32.472c-.001 12.984-10.526 23.509-23.51 23.509z" fill="#ff908a"/><path d="m313.16 47.28v32.47c0 12.98-10.52 23.51-23.51 23.51h-33.65v-77.55h35.6c11.91 0 21.56 9.65 21.56 21.57z" fill="#ff6f64"/><g><g><path d="m256 161.333h75.667v30h-75.667z" fill="#274a59"/></g><path d="m181 156.334h39.999v39.999h-39.999z" fill="#fedd55"/></g><g><g><path d="m256 245.5h75.667v30h-75.667z" fill="#274a59"/></g><path d="m181 240.501h39.999v39.999h-39.999z" fill="#fedd55"/></g><g><g><path d="m256 329.667h75.667v30h-75.667z" fill="#274a59"/></g><path d="m181 324.667h39.999v39.999h-39.999z" fill="#fedd55"/></g></g></g></svg>